<?xml version="1.0" encoding="UTF-8" standalone="no"?>
<!DOCTYPE svg PUBLIC "-//W3C//DTD SVG 1.1//EN" "http://www.w3.org/Graphics/SVG/1.1/DTD/svg11.dtd">
<svg width="100%" height="100%" viewBox="0 0 152 151" version="1.1" xmlns="http://www.w3.org/2000/svg" xmlns:xlink="http://www.w3.org/1999/xlink" xml:space="preserve" xmlns:serif="http://www.serif.com/" style="fill-rule:evenodd;clip-rule:evenodd;stroke-linejoin:round;stroke-miterlimit:2;">
    <g transform="matrix(1,0,0,1,-299,-921)">
        <g id="add" transform="matrix(1,0,0,1,0,-106.058)">
            <g transform="matrix(1.15922,0,0,1.15922,127.594,-241.242)">
                <path d="M213.425,1094.12C177.707,1094.12 148.708,1123.12 148.708,1158.83C148.708,1194.55 177.707,1223.55 213.425,1223.55C249.143,1223.55 278.142,1194.55 278.142,1158.83C278.142,1123.12 249.143,1094.12 213.425,1094.12ZM213.425,1102.74C244.382,1102.74 269.515,1127.88 269.515,1158.83C269.515,1189.79 244.382,1214.92 213.425,1214.92C182.468,1214.92 157.335,1189.79 157.335,1158.83C157.335,1127.88 182.468,1102.74 213.425,1102.74Z"/>
            </g>
            <path d="M370,1097.1L370,1068.99C370,1066.23 372.24,1063.99 375,1063.99C377.76,1063.99 380,1066.23 380,1068.99L380,1097.1L408.106,1097.1C410.865,1097.1 413.106,1099.34 413.106,1102.1C413.106,1104.86 410.865,1107.1 408.106,1107.1L380,1107.1L380,1135.2C380,1137.96 377.76,1140.2 375,1140.2C372.24,1140.2 370,1137.96 370,1135.2L370,1107.1L341.894,1107.1C339.135,1107.1 336.894,1104.86 336.894,1102.1C336.894,1099.34 339.135,1097.1 341.894,1097.1L370,1097.1Z"/>
        </g>
    </g>
</svg>
