<?xml version="1.0" encoding="UTF-8" standalone="no"?>
<!DOCTYPE svg PUBLIC "-//W3C//DTD SVG 1.1//EN" "http://www.w3.org/Graphics/SVG/1.1/DTD/svg11.dtd">
<svg width="100%" height="100%" viewBox="0 0 64 64" version="1.1" xmlns="http://www.w3.org/2000/svg" xmlns:xlink="http://www.w3.org/1999/xlink" xml:space="preserve" xmlns:serif="http://www.serif.com/" style="fill-rule:evenodd;clip-rule:evenodd;stroke-linejoin:round;stroke-miterlimit:2;">
    <g transform="matrix(1,0,0,1,-102,-1243)">
        <g id="dark_theme" transform="matrix(0.963189,0,0,0.963189,-258.569,58.4263)">
            <path d="M417.037,1230.5C416.319,1230.26 415.528,1230.45 414.993,1230.98C414.459,1231.52 414.271,1232.31 414.509,1233.03C415.477,1235.94 416,1239.06 416,1242.31C416,1258.59 402.781,1271.81 386.5,1271.81C383.259,1271.81 380.138,1271.28 377.222,1270.31C376.504,1270.08 375.713,1270.26 375.178,1270.8C374.643,1271.33 374.456,1272.12 374.694,1272.84C379.116,1286.18 391.692,1295.81 406.5,1295.81C424.989,1295.81 440,1280.79 440,1262.31C440,1247.5 430.372,1234.92 417.037,1230.5ZM419.358,1235.75C419.779,1237.87 420,1240.06 420,1242.31C420,1260.79 404.989,1275.81 386.5,1275.81C384.258,1275.81 382.067,1275.58 379.947,1275.16C384.728,1285.01 394.826,1291.81 406.5,1291.81C422.781,1291.81 436,1278.59 436,1262.31C436,1250.63 429.205,1240.53 419.358,1235.75Z"/>
        </g>
    </g>
</svg>
