<?xml version="1.0" encoding="UTF-8" standalone="no"?>
<!DOCTYPE svg PUBLIC "-//W3C//DTD SVG 1.1//EN" "http://www.w3.org/Graphics/SVG/1.1/DTD/svg11.dtd">
<svg width="100%" height="100%" viewBox="0 0 72 64" version="1.1" xmlns="http://www.w3.org/2000/svg" xmlns:xlink="http://www.w3.org/1999/xlink" xml:space="preserve" xmlns:serif="http://www.serif.com/" style="fill-rule:evenodd;clip-rule:evenodd;stroke-linejoin:round;stroke-miterlimit:2;">
    <g transform="matrix(1,0,0,1,-339,-1243)">
        <g id="info" transform="matrix(0.420106,0,0,0.420106,221.192,811.64)">
            <g transform="matrix(3.41795,0,0,3.41795,-811.92,-3273.93)">
                <path d="M325.443,1280.54C325.464,1268.44 335.295,1258.63 347.399,1258.63C359.518,1258.63 369.356,1268.46 369.356,1280.58C369.356,1292.7 359.518,1302.54 347.399,1302.54C340.828,1302.54 334.926,1299.65 330.901,1295.06C330.354,1294.44 330.416,1293.49 331.038,1292.95C331.66,1292.4 332.608,1292.46 333.155,1293.08C336.63,1297.04 341.725,1299.54 347.399,1299.54C357.862,1299.54 366.356,1291.05 366.356,1280.58C366.356,1270.12 357.862,1261.63 347.399,1261.63C336.951,1261.63 328.465,1270.1 328.443,1280.54L331.358,1277.63C331.943,1277.04 332.894,1277.04 333.479,1277.63C334.065,1278.21 334.065,1279.16 333.479,1279.75L327.976,1285.25L327.753,1285.43L327.591,1285.52C327.034,1285.78 326.347,1285.69 325.885,1285.23L320.406,1279.75C319.821,1279.16 319.821,1278.21 320.406,1277.63C320.992,1277.04 321.942,1277.04 322.528,1277.63L325.443,1280.54Z"/>
            </g>
            <g transform="matrix(3.41795,0,0,3.41795,-831.227,-3266.15)">
                <path d="M351.588,1277.51L351.588,1277.51L351.588,1269.55C351.588,1268.75 352.244,1268.09 353.051,1268.09C353.858,1268.09 354.514,1268.75 354.514,1269.55L354.514,1276.91L361.245,1283.64C361.815,1284.21 361.815,1285.14 361.245,1285.71C360.674,1286.28 359.747,1286.28 359.176,1285.71L352.016,1278.55C351.73,1278.26 351.587,1277.89 351.588,1277.51Z"/>
            </g>
        </g>
    </g>
</svg>
