<?xml version="1.0" encoding="UTF-8" standalone="no"?>
<!DOCTYPE svg PUBLIC "-//W3C//DTD SVG 1.1//EN" "http://www.w3.org/Graphics/SVG/1.1/DTD/svg11.dtd">
<svg width="100%" height="100%" viewBox="0 0 64 64" version="1.1" xmlns="http://www.w3.org/2000/svg" xmlns:xlink="http://www.w3.org/1999/xlink" xml:space="preserve" xmlns:serif="http://www.serif.com/" style="fill-rule:evenodd;clip-rule:evenodd;stroke-linejoin:round;stroke-miterlimit:2;">
    <g transform="matrix(1,0,0,1,-584,-1243)">
        <g id="info" transform="matrix(0.419276,0,0,0.419276,458.866,813.513)">
            <g transform="matrix(1,0,0,1,-264.107,992.82)">
                <path d="M634.451,95.147L634.451,139.421C634.451,142.181 636.691,144.421 639.451,144.421C642.21,144.421 644.451,142.181 644.451,139.421L644.451,95.147C644.451,92.387 642.21,90.147 639.451,90.147C636.691,90.147 634.451,92.387 634.451,95.147ZM639.451,71.437C643.144,71.437 646.141,74.435 646.141,78.127C646.141,81.82 643.144,84.818 639.451,84.818C635.758,84.818 632.76,81.82 632.76,78.127C632.76,74.435 635.758,71.437 639.451,71.437Z"/>
            </g>
            <g transform="matrix(12.2418,0,0,12.2418,-4304.05,-14597.9)">
                <path d="M382.248,1276.24C378.858,1276.24 376.105,1279 376.105,1282.39C376.105,1285.78 378.858,1288.53 382.248,1288.53C385.638,1288.53 388.39,1285.78 388.39,1282.39C388.39,1279 385.638,1276.24 382.248,1276.24ZM382.248,1277.08C385.176,1277.08 387.553,1279.46 387.553,1282.39C387.553,1285.31 385.176,1287.69 382.248,1287.69C379.32,1287.69 376.943,1285.31 376.943,1282.39C376.943,1279.46 379.32,1277.08 382.248,1277.08Z"/>
            </g>
        </g>
    </g>
</svg>
