<?xml version="1.0" encoding="UTF-8" standalone="no"?>
<!DOCTYPE svg PUBLIC "-//W3C//DTD SVG 1.1//EN" "http://www.w3.org/Graphics/SVG/1.1/DTD/svg11.dtd">
<svg width="100%" height="100%" viewBox="0 0 64 64" version="1.1" xmlns="http://www.w3.org/2000/svg" xmlns:xlink="http://www.w3.org/1999/xlink" xml:space="preserve" xmlns:serif="http://www.serif.com/" style="fill-rule:evenodd;clip-rule:evenodd;stroke-linejoin:round;stroke-miterlimit:2;">
    <g transform="matrix(1,0,0,1,-102,-1243)">
        <g id="light_theme" transform="matrix(1,0,0,1,-7.6743,-4.57338)">
            <g transform="matrix(0.567536,0,0,0.567536,6.75982,551.338)">
                <path d="M237.251,1249.55C218.676,1249.55 203.595,1264.63 203.595,1283.21C203.595,1301.78 218.676,1316.86 237.251,1316.86C255.826,1316.86 270.906,1301.78 270.906,1283.21C270.906,1264.63 255.826,1249.55 237.251,1249.55ZM237.251,1256.18C252.168,1256.18 264.279,1268.29 264.279,1283.21C264.279,1298.12 252.168,1310.24 237.251,1310.24C222.333,1310.24 210.223,1298.12 210.223,1283.21C210.223,1268.29 222.333,1256.18 237.251,1256.18Z"/>
            </g>
            <g transform="matrix(0.940299,0,0,0.940299,-81.6782,71.918)">
                <path d="M239.251,1260.38L239.251,1252.87C239.251,1251.76 238.355,1250.87 237.251,1250.87C236.147,1250.87 235.251,1251.76 235.251,1252.87L235.251,1260.38C235.251,1261.49 236.147,1262.38 237.251,1262.38C238.355,1262.38 239.251,1261.49 239.251,1260.38Z"/>
            </g>
            <g transform="matrix(0.940299,0,0,0.940299,-81.6782,124.088)">
                <path d="M239.251,1260.38L239.251,1252.87C239.251,1251.76 238.355,1250.87 237.251,1250.87C236.147,1250.87 235.251,1251.76 235.251,1252.87L235.251,1260.38C235.251,1261.49 236.147,1262.38 237.251,1262.38C238.355,1262.38 239.251,1261.49 239.251,1260.38Z"/>
            </g>
            <g transform="matrix(5.75767e-17,0.940299,-0.940299,5.75767e-17,1349.09,1056.52)">
                <path d="M239.251,1260.38L239.251,1252.87C239.251,1251.76 238.355,1250.87 237.251,1250.87C236.147,1250.87 235.251,1251.76 235.251,1252.87L235.251,1260.38C235.251,1261.49 236.147,1262.38 237.251,1262.38C238.355,1262.38 239.251,1261.49 239.251,1260.38Z"/>
            </g>
            <g transform="matrix(5.75767e-17,0.940299,-0.940299,5.75767e-17,1296.92,1056.52)">
                <path d="M239.251,1260.38L239.251,1252.87C239.251,1251.76 238.355,1250.87 237.251,1250.87C236.147,1250.87 235.251,1251.76 235.251,1252.87L235.251,1260.38C235.251,1261.49 236.147,1262.38 237.251,1262.38C238.355,1262.38 239.251,1261.49 239.251,1260.38Z"/>
            </g>
            <g transform="matrix(-0.664891,0.664891,-0.664891,-0.664891,1119.01,1941.72)">
                <path d="M239.251,1260.38L239.251,1257.11C239.251,1256 238.355,1255.11 237.251,1255.11C236.147,1255.11 235.251,1256 235.251,1257.11L235.251,1260.38C235.251,1261.49 236.147,1262.38 237.251,1262.38C238.355,1262.38 239.251,1261.49 239.251,1260.38Z"/>
            </g>
            <g transform="matrix(-0.664891,0.664891,-0.664891,-0.664891,1150.33,1973.04)">
                <path d="M239.251,1256.14L239.251,1252.87C239.251,1251.76 238.355,1250.87 237.251,1250.87C236.147,1250.87 235.251,1251.76 235.251,1252.87L235.251,1256.14C235.251,1257.24 236.147,1258.14 237.251,1258.14C238.355,1258.14 239.251,1257.24 239.251,1256.14Z"/>
            </g>
            <g transform="matrix(-0.664891,-0.664891,0.664891,-0.664891,-552.025,2288.53)">
                <path d="M239.251,1256.14L239.251,1252.87C239.251,1251.76 238.355,1250.87 237.251,1250.87C236.147,1250.87 235.251,1251.76 235.251,1252.87L235.251,1256.14C235.251,1257.24 236.147,1258.14 237.251,1258.14C238.355,1258.14 239.251,1257.24 239.251,1256.14Z"/>
            </g>
            <g transform="matrix(-0.664891,-0.664891,0.664891,-0.664891,-520.703,2257.21)">
                <path d="M239.251,1260.38L239.251,1257.11C239.251,1256 238.355,1255.11 237.251,1255.11C236.147,1255.11 235.251,1256 235.251,1257.11L235.251,1260.38C235.251,1261.49 236.147,1262.38 237.251,1262.38C238.355,1262.38 239.251,1261.49 239.251,1260.38Z"/>
            </g>
        </g>
    </g>
</svg>
