<?xml version="1.0" encoding="UTF-8" standalone="no"?>
<!DOCTYPE svg PUBLIC "-//W3C//DTD SVG 1.1//EN" "http://www.w3.org/Graphics/SVG/1.1/DTD/svg11.dtd">
<svg width="100%" height="100%" viewBox="0 0 78 77" version="1.1" xmlns="http://www.w3.org/2000/svg" xmlns:xlink="http://www.w3.org/1999/xlink" xml:space="preserve" xmlns:serif="http://www.serif.com/" style="fill-rule:evenodd;clip-rule:evenodd;stroke-linejoin:round;stroke-miterlimit:2;">
    <g transform="matrix(1,0,0,1,-336,-1100)">
        <g id="subtract" transform="matrix(1,0,0,1,-3.35376e-12,-103.703)">
            <g transform="matrix(0.588811,0,0,0.588811,249.333,559.806)">
                <path d="M213.425,1094.12C177.707,1094.12 148.708,1123.12 148.708,1158.83C148.708,1194.55 177.707,1223.55 213.425,1223.55C249.143,1223.55 278.142,1194.55 278.142,1158.83C278.142,1123.12 249.143,1094.12 213.425,1094.12ZM213.425,1102.74C244.382,1102.74 269.515,1127.88 269.515,1158.83C269.515,1189.79 244.382,1214.92 213.425,1214.92C182.468,1214.92 157.335,1189.79 157.335,1158.83C157.335,1127.88 182.468,1102.74 213.425,1102.74Z"/>
            </g>
            <g transform="matrix(3.11023e-17,0.507938,-0.507938,3.11023e-17,954.331,972.842)">
                <path d="M525.178,1107.45L525.178,1173.66C525.178,1176.42 527.418,1178.66 530.178,1178.66C532.937,1178.66 535.178,1176.42 535.178,1173.66L535.178,1107.45C535.178,1104.69 532.937,1102.45 530.178,1102.45C527.418,1102.45 525.178,1104.69 525.178,1107.45Z"/>
            </g>
        </g>
    </g>
</svg>
